<svg width="49" height="49" viewBox="0 0 49 49" fill="none" xmlns="http://www.w3.org/2000/svg">
<g clip-path="url(#clip0_277_553)">
<path d="M45.9481 36.9602L38.4024 20.8487C38.3222 20.6816 38.1793 20.5529 38.0047 20.4907C37.8301 20.4284 37.638 20.4376 37.4701 20.5162C37.3023 20.5948 37.1722 20.7365 37.1083 20.9105C37.0444 21.0845 37.0518 21.2767 37.1288 21.4453L44.6744 37.5564C45.0119 38.2782 44.6995 39.1404 43.978 39.4785L29.5108 46.2536C28.7894 46.5916 27.9274 46.2795 27.5892 45.558L24.8844 39.781L31.9244 22.7953C32.0749 22.431 32.1484 22.0396 32.1404 21.6456C32.1323 21.2516 32.043 20.8635 31.8778 20.5056L28.027 12.1874L33.0186 13.7665C33.209 13.8269 33.3849 13.926 33.5351 14.0577C33.6853 14.1894 33.8066 14.3508 33.8913 14.5317L35.7402 18.4781C35.8194 18.6469 35.9623 18.7775 36.1377 18.8409C36.3131 18.9044 36.5064 18.8956 36.6753 18.8165C36.7589 18.7773 36.834 18.7221 36.8963 18.6539C36.9586 18.5857 37.0068 18.5059 37.0382 18.419C37.0696 18.3322 37.0836 18.24 37.0794 18.1477C37.0752 18.0555 37.0529 17.965 37.0137 17.8813L35.165 13.9357C34.9977 13.5787 34.7583 13.2602 34.4618 13.0003C34.1653 12.7404 33.8182 12.5447 33.4423 12.4256L27.4226 10.5212C28.6637 8.70823 29.971 6.28394 30.4208 5.19859C31.6004 2.3527 30.6484 0.769999 29.3642 0.237683C28.0799 -0.294445 26.2875 0.150777 25.1079 2.99667C24.6006 4.22068 24.1351 6.88638 23.8041 9.17324C23.4016 9.19795 23.0052 9.28374 22.6285 9.42767L13.5209 12.9075C13.1591 13.0465 12.8293 13.2575 12.5514 13.5277C12.2736 13.7979 12.0534 14.1217 11.9044 14.4794L2.16321 37.9832C1.87155 38.6868 1.87136 39.4619 2.16274 40.1657C2.45402 40.8695 3.00199 41.4176 3.70559 41.7092L6.55467 42.89C6.63998 42.9253 6.73141 42.9435 6.82376 42.9436C6.9161 42.9436 7.00754 42.9254 7.09287 42.8901C7.17819 42.8548 7.25572 42.803 7.32104 42.7377C7.38635 42.6724 7.43816 42.5949 7.47352 42.5096C7.50888 42.4243 7.52709 42.3329 7.52711 42.2405C7.52713 42.1482 7.50897 42.0567 7.47365 41.9714C7.43833 41.8861 7.38655 41.8086 7.32127 41.7433C7.25599 41.6779 7.17848 41.6261 7.09317 41.5908L4.2441 40.4099C3.88756 40.2621 3.60978 39.9844 3.46212 39.6276C3.31447 39.2709 3.31456 38.8782 3.4624 38.5216L13.2038 15.0176C13.2794 14.8362 13.3909 14.6721 13.5318 14.5352C13.6726 14.3982 13.8398 14.2913 14.0231 14.2209L23.1307 10.741C23.2846 10.6822 23.4438 10.6383 23.6061 10.6097C23.5329 11.1662 23.4634 11.7232 23.3977 12.2807C23.0955 12.2981 22.7994 12.3732 22.5254 12.5018C21.9507 12.7709 21.5152 13.2477 21.2992 13.8444C21.0831 14.4411 21.1124 15.0861 21.3814 15.6608C21.7848 16.5223 22.6426 17.0288 23.5366 17.0288C23.8734 17.0288 24.2156 16.9568 24.5403 16.8047C25.115 16.5357 25.5505 16.0587 25.7666 15.4622C25.9826 14.8655 25.9534 14.2205 25.6844 13.6458C25.4839 13.2179 25.1682 12.8675 24.7737 12.627C24.826 12.1793 24.9058 11.519 25.007 10.7503C25.6157 10.9875 26.136 11.4498 26.4285 12.0818L30.6015 21.0961C30.6852 21.2775 30.7305 21.4742 30.7346 21.6739C30.7386 21.8736 30.7013 22.072 30.625 22.2566L20.8902 45.7448C20.818 45.9204 20.7116 46.0799 20.5774 46.2141C20.4431 46.3483 20.2835 46.4546 20.1079 46.5267C19.9327 46.5999 19.7447 46.6375 19.5549 46.6375C19.365 46.6374 19.177 46.5997 19.0018 46.5266L10.3019 42.9208C10.13 42.8516 9.93776 42.853 9.76691 42.9247C9.59606 42.9964 9.46042 43.1327 9.38947 43.3038C9.31852 43.475 9.31799 43.6673 9.38801 43.8388C9.45802 44.0104 9.59292 44.1474 9.76338 44.22L18.4633 47.8257C18.8082 47.9691 19.1779 48.0429 19.5514 48.043C20.6707 48.043 21.7349 47.3799 22.1893 46.2832L24.1551 41.5402L26.3155 46.1545C26.7999 47.1883 27.8296 47.7962 28.9022 47.7962C29.3066 47.7962 29.7174 47.7098 30.1072 47.5271L44.5745 40.752C45.9979 40.085 46.6141 38.3843 45.9481 36.9602ZM24.4442 14.9833C24.4012 15.1032 24.3348 15.2133 24.2489 15.3073C24.1631 15.4014 24.0594 15.4774 23.9439 15.5311C23.46 15.7578 22.8817 15.5484 22.655 15.0644C22.6007 14.9493 22.5698 14.8244 22.564 14.6972C22.5583 14.57 22.5778 14.4429 22.6215 14.3233C22.6645 14.2035 22.7309 14.0934 22.8167 13.9993C22.9026 13.9053 23.0063 13.8293 23.1217 13.7755C23.2501 13.7151 23.3902 13.6837 23.5321 13.6836C23.6434 13.6836 23.755 13.703 23.8627 13.742C23.9826 13.785 24.0927 13.8514 24.1867 13.9373C24.2807 14.0231 24.3568 14.1268 24.4105 14.2422C24.4649 14.3574 24.4959 14.4822 24.5017 14.6094C24.5075 14.7366 24.488 14.8637 24.4442 14.9833ZM26.216 9.79452C25.901 9.59493 25.5599 9.43969 25.2025 9.33317C25.5196 7.13876 25.9545 4.62821 26.4075 3.53498C26.7265 2.76501 27.6009 1.02931 28.826 1.53678C30.0509 2.04454 29.4411 3.89011 29.1218 4.65999C28.6895 5.70325 27.4145 8.06089 26.216 9.79452Z" fill="white"/>
<path d="M14.5568 23.7518C16.0802 22.941 17.8283 22.7717 19.479 23.2758C22.219 24.1123 24.0581 26.5971 24.0555 29.4589C24.0554 29.5512 24.0735 29.6427 24.1087 29.728C24.144 29.8134 24.1957 29.891 24.261 29.9563C24.3262 30.0217 24.4037 30.0736 24.489 30.109C24.5743 30.1444 24.6657 30.1627 24.758 30.1628H24.7587C24.9451 30.1627 25.1238 30.0887 25.2557 29.957C25.3875 29.8253 25.4617 29.6466 25.4619 29.4602C25.4634 27.809 24.9263 26.1609 23.9496 24.8195C22.9393 23.4321 21.5354 22.4331 19.8896 21.9306C15.7403 20.664 11.3343 23.0091 10.0678 27.1582C9.45419 29.1683 9.66007 31.2968 10.6475 33.1519C11.6349 35.007 13.2855 36.3666 15.2954 36.9802C16.0403 37.2077 16.8149 37.3233 17.5938 37.3233C18.7011 37.3234 19.796 37.0894 20.8065 36.6367C22.5238 35.8674 23.9089 34.5108 24.7069 32.8168C24.7463 32.7333 24.7688 32.6428 24.7732 32.5506C24.7776 32.4584 24.7638 32.3662 24.7326 32.2793C24.7013 32.1924 24.6533 32.1125 24.5912 32.0441C24.5291 31.9758 24.4541 31.9204 24.3706 31.881C24.287 31.8417 24.1966 31.8191 24.1043 31.8147C24.0121 31.8103 23.9199 31.8241 23.833 31.8554C23.7461 31.8866 23.6662 31.9347 23.5979 31.9968C23.5295 32.0589 23.4741 32.1339 23.4347 32.2174C22.0784 35.0968 18.756 36.5662 15.7062 35.635C14.0556 35.1312 12.7 34.0146 11.8891 32.4911C11.0782 30.9677 10.9091 29.2195 11.4131 27.5689C11.9167 25.9183 13.0334 24.5627 14.5568 23.7518Z" fill="white"/>
<path d="M20.297 27.5415C20.2147 27.3857 20.1022 27.2477 19.9662 27.1357C19.8301 27.0236 19.6732 26.9397 19.5045 26.8887L19.1851 26.7912L19.4021 26.0802C19.4541 25.9026 19.4339 25.7116 19.346 25.5487C19.2582 25.3858 19.1096 25.2642 18.9326 25.2101C18.7555 25.156 18.5643 25.174 18.4004 25.26C18.2365 25.346 18.1132 25.4931 18.0571 25.6695L17.8351 26.3966C16.8983 26.2349 15.9627 26.7914 15.6781 27.7238C15.604 27.9644 15.5783 28.2172 15.6025 28.4678C15.6267 28.7183 15.7004 28.9616 15.8193 29.1834C15.937 29.406 16.0976 29.6029 16.2919 29.7629C16.4861 29.923 16.7102 30.0429 16.9512 30.1157L17.8364 30.3859C17.9004 30.4053 17.9601 30.4371 18.0117 30.4797C18.0634 30.5223 18.1061 30.5747 18.1374 30.6339C18.169 30.6929 18.1886 30.7576 18.195 30.8242C18.2015 30.8908 18.1946 30.9581 18.1749 31.0221C18.1555 31.0861 18.1236 31.1457 18.0811 31.1974C18.0385 31.249 17.9861 31.2917 17.9269 31.323C17.8679 31.3547 17.8033 31.3743 17.7366 31.3807C17.67 31.3872 17.6028 31.3803 17.5388 31.3605L17.0963 31.2254L16.1635 30.9407C16.1996 30.7637 16.1663 30.5797 16.0704 30.4266C15.9745 30.2736 15.8234 30.1633 15.6484 30.1186C15.4735 30.0739 15.288 30.0982 15.1304 30.1865C14.9729 30.2748 14.8554 30.4204 14.8022 30.593C14.5863 31.3004 14.9861 32.0516 15.6936 32.2677L16.0131 32.3652L15.7961 33.0762C15.7444 33.2538 15.7648 33.4445 15.8527 33.6072C15.9407 33.7698 16.0891 33.8913 16.266 33.9453C16.4428 33.9993 16.6338 33.9814 16.7976 33.8956C16.9614 33.8098 17.0848 33.663 17.1411 33.4869L17.3628 32.7605C17.4716 32.7794 17.5809 32.79 17.69 32.79C17.9997 32.79 18.3067 32.7141 18.5878 32.5645C18.8103 32.4468 19.0073 32.2862 19.1673 32.0919C19.3273 31.8976 19.4472 31.6735 19.52 31.4326C19.8285 30.4222 19.2574 29.3492 18.247 29.0408L17.3618 28.7706C17.2977 28.7512 17.2381 28.7193 17.1865 28.6767C17.1348 28.6342 17.0921 28.5818 17.0609 28.5226C17.0292 28.4636 17.0096 28.3989 17.0032 28.3322C16.9968 28.2656 17.0036 28.1983 17.0234 28.1344C17.0629 28.0052 17.1521 27.8969 17.2714 27.8335C17.3907 27.77 17.5303 27.7565 17.6595 27.7958L18.1018 27.9308L18.1021 27.9309H18.1022L19.0348 28.2157C18.9982 28.3928 19.0312 28.5772 19.1271 28.7306C19.2229 28.884 19.3742 28.9946 19.5494 29.0393C19.7247 29.0841 19.9105 29.0596 20.0681 28.9709C20.2258 28.8823 20.3432 28.7363 20.396 28.5633C20.4479 28.3949 20.4659 28.2179 20.4489 28.0425C20.4319 27.8671 20.3803 27.6968 20.297 27.5415ZM41.291 36.9233L36.7906 27.3599C36.7096 27.1937 36.5665 27.066 36.3921 27.0045C36.2177 26.9431 36.0262 26.9528 35.8589 27.0315C35.6916 27.1102 35.5621 27.2516 35.4983 27.4252C35.4345 27.5987 35.4416 27.7904 35.5181 27.9587L40.0185 37.5221C40.0753 37.6429 40.1654 37.7451 40.2782 37.8166C40.3909 37.8881 40.5217 37.9261 40.6552 37.9261C40.7737 37.926 40.8901 37.896 40.9939 37.8389C41.0976 37.7818 41.1852 37.6994 41.2487 37.5994C41.3121 37.4994 41.3492 37.385 41.3566 37.2668C41.364 37.1486 41.3414 37.0304 41.291 36.9233ZM38.1469 38.6047L33.6465 29.0413C33.5671 28.8726 33.424 28.7423 33.2485 28.6791C33.073 28.6159 32.8797 28.6251 32.7109 28.7045C32.5422 28.7839 32.4119 28.9271 32.3487 29.1025C32.2856 29.278 32.2947 29.4714 32.3741 29.6401L36.8745 39.2035C36.9313 39.3243 37.0214 39.4265 37.1341 39.4981C37.2469 39.5696 37.3777 39.6075 37.5112 39.6075C37.6296 39.6074 37.7461 39.5774 37.8499 39.5203C37.9536 39.4632 38.0412 39.3808 38.1046 39.2808C38.168 39.1808 38.2052 39.0664 38.2126 38.9482C38.22 38.83 38.1974 38.7119 38.1469 38.6047Z" fill="white"/>
</g>
<defs>
<clipPath id="clip0_277_553">
<rect width="48" height="48" fill="white" transform="translate(0.0805664 0.0429688)"/>
</clipPath>
</defs>
</svg>
