<svg xmlns="http://www.w3.org/2000/svg" width="35" height="34" viewBox="0 0 35 34" fill="none">
  <g clip-path="url(#clip0_37_666)">
    <path d="M32.8653 26.1486L27.5756 14.854C27.5194 14.7369 27.4192 14.6467 27.2968 14.603C27.1744 14.5594 27.0397 14.5658 26.9221 14.6209C26.8044 14.676 26.7132 14.7754 26.6684 14.8973C26.6236 15.0193 26.6288 15.154 26.6828 15.2722L31.9724 26.5665C32.209 27.0725 31.9901 27.677 31.4843 27.914L21.3424 32.6635C20.8366 32.9004 20.2323 32.6817 19.9953 32.1759L18.0992 28.126L23.0344 16.2186C23.1398 15.9633 23.1914 15.6889 23.1858 15.4126C23.1801 15.1364 23.1175 14.8643 23.0017 14.6135L20.3022 8.78222L23.8014 9.88923C23.9349 9.93154 24.0582 10.001 24.1635 10.0934C24.2688 10.1857 24.3538 10.2988 24.4132 10.4257L25.7094 13.1921C25.7648 13.3105 25.8651 13.402 25.988 13.4465C26.1109 13.491 26.2465 13.4848 26.3649 13.4294C26.4235 13.4019 26.4761 13.3632 26.5198 13.3154C26.5634 13.2676 26.5972 13.2116 26.6193 13.1507C26.6413 13.0899 26.6511 13.0252 26.6482 12.9606C26.6452 12.8959 26.6295 12.8324 26.6021 12.7738L25.3061 10.0078C25.1888 9.75752 25.021 9.53425 24.8131 9.35206C24.6053 9.16987 24.362 9.03271 24.0985 8.94922L19.8785 7.61415C20.7485 6.34323 21.665 4.64374 21.9803 3.88288C22.8072 1.88784 22.1398 0.778325 21.2396 0.405158C20.3393 0.0321231 19.0827 0.344235 18.2558 2.33928C17.9002 3.19734 17.5739 5.06606 17.3418 6.66921C17.0597 6.68653 16.7818 6.74668 16.5177 6.84758L10.133 9.28703C9.87942 9.38447 9.64821 9.53237 9.45342 9.72178C9.25862 9.9112 9.10431 10.1382 8.99981 10.389L2.17101 26.8657C1.96655 27.359 1.96642 27.9023 2.17068 28.3957C2.37488 28.8891 2.75902 29.2733 3.25226 29.4777L5.24954 30.3055C5.30934 30.3303 5.37344 30.343 5.43818 30.3431C5.50291 30.3431 5.56702 30.3303 5.62683 30.3056C5.68664 30.2808 5.741 30.2445 5.78678 30.1988C5.83257 30.153 5.86889 30.0987 5.89368 30.0389C5.91847 29.9791 5.93123 29.915 5.93125 29.8502C5.93126 29.7855 5.91853 29.7214 5.89377 29.6616C5.86901 29.6018 5.83271 29.5474 5.78695 29.5016C5.74118 29.4558 5.68685 29.4195 5.62705 29.3947L3.62977 28.5669C3.37983 28.4633 3.1851 28.2686 3.08158 28.0185C2.97807 27.7684 2.97814 27.4931 3.08178 27.2431L9.91077 10.7662C9.96373 10.6391 10.0419 10.5241 10.1407 10.4281C10.2394 10.3321 10.3566 10.2571 10.4851 10.2077L16.8698 7.76827C16.9777 7.72705 17.0893 7.69622 17.203 7.67619C17.1517 8.06633 17.103 8.45682 17.0569 8.84761C16.8451 8.85983 16.6375 8.91245 16.4454 9.00265C16.0425 9.19127 15.7373 9.52553 15.5858 9.94378C15.4343 10.3621 15.4548 10.8143 15.6435 11.2171C15.9263 11.8211 16.5276 12.1761 17.1543 12.1761C17.3904 12.1761 17.6303 12.1257 17.858 12.0191C18.2608 11.8305 18.5661 11.4961 18.7176 11.0779C18.869 10.6596 18.8486 10.2075 18.66 9.80458C18.5194 9.50463 18.2981 9.25896 18.0215 9.09039C18.0582 8.7765 18.1141 8.31363 18.1851 7.77478C18.6118 7.94105 18.9765 8.26512 19.1816 8.70815L22.107 15.0275C22.1657 15.1546 22.1974 15.2925 22.2003 15.4325C22.2031 15.5725 22.177 15.7116 22.1235 15.841L15.2991 32.3068C15.2485 32.4299 15.1739 32.5417 15.0798 32.6358C14.9857 32.7299 14.8738 32.8044 14.7507 32.855C14.6279 32.9062 14.4961 32.9326 14.363 32.9326C14.2299 32.9326 14.0981 32.9061 13.9753 32.8548L7.87643 30.3271C7.75595 30.2786 7.62117 30.2795 7.5014 30.3298C7.38163 30.3801 7.28654 30.4756 7.2368 30.5956C7.18707 30.7156 7.1867 30.8504 7.23578 30.9707C7.28487 31.0909 7.37943 31.187 7.49893 31.2379L13.5978 33.7656C13.8396 33.8661 14.0988 33.9178 14.3606 33.9179C15.1452 33.9179 15.8912 33.453 16.2098 32.6842L17.5879 29.3593L19.1024 32.594C19.442 33.3188 20.1638 33.7449 20.9157 33.7449C21.1992 33.7449 21.4872 33.6843 21.7605 33.5562L31.9024 28.8067C32.9002 28.3392 33.3322 27.1469 32.8653 26.1486ZM17.7906 10.7422C17.7604 10.8263 17.7139 10.9035 17.6537 10.9694C17.5935 11.0353 17.5208 11.0886 17.4398 11.1262C17.1006 11.2852 16.6952 11.1383 16.5363 10.7991C16.4982 10.7183 16.4765 10.6309 16.4725 10.5417C16.4685 10.4525 16.4821 10.3634 16.5128 10.2796C16.5429 10.1955 16.5895 10.1183 16.6497 10.0524C16.7099 9.98652 16.7825 9.93319 16.8635 9.89554C16.9535 9.85317 17.0517 9.83116 17.1512 9.83107C17.2292 9.83107 17.3074 9.84467 17.3829 9.87201C17.4669 9.90218 17.5441 9.94871 17.61 10.0089C17.676 10.0691 17.7293 10.1418 17.7669 10.2227C17.8051 10.3034 17.8268 10.3909 17.8309 10.4801C17.8349 10.5693 17.8212 10.6584 17.7906 10.7422ZM19.0327 7.10474C18.8118 6.96482 18.5727 6.856 18.3221 6.78133C18.5444 5.24299 18.8493 3.48303 19.1669 2.71665C19.3905 2.17688 20.0035 0.960111 20.8623 1.31586C21.721 1.67181 21.2935 2.9656 21.0697 3.50531C20.7666 4.23666 19.8728 5.88942 19.0327 7.10474Z" fill="#4679BE"/>
    <path d="M10.8586 16.8892C11.9266 16.3208 13.152 16.2022 14.3092 16.5555C16.23 17.1419 17.5193 18.8838 17.5174 20.89C17.5174 20.9547 17.5301 21.0189 17.5548 21.0787C17.5795 21.1385 17.6158 21.1929 17.6615 21.2387C17.7072 21.2845 17.7615 21.3209 17.8213 21.3457C17.8811 21.3706 17.9452 21.3834 18.01 21.3834H18.0104C18.1411 21.3834 18.2664 21.3315 18.3588 21.2392C18.4513 21.1468 18.5033 21.0216 18.5034 20.8909C18.5044 19.7334 18.1279 18.5781 17.4432 17.6377C16.735 16.6651 15.7508 15.9648 14.597 15.6125C11.6883 14.7246 8.59956 16.3686 7.71172 19.2772C7.28158 20.6863 7.4259 22.1784 8.11814 23.4789C8.81032 24.7794 9.96742 25.7325 11.3764 26.1626C11.8986 26.3221 12.4416 26.4032 12.9877 26.4032C13.7639 26.4032 14.5314 26.2392 15.2399 25.9218C16.4437 25.3825 17.4147 24.4315 17.9741 23.244C18.0017 23.1855 18.0175 23.122 18.0206 23.0574C18.0237 22.9927 18.014 22.9281 17.9921 22.8672C17.9702 22.8062 17.9365 22.7502 17.893 22.7023C17.8494 22.6544 17.7969 22.6156 17.7383 22.588C17.6798 22.5604 17.6164 22.5446 17.5517 22.5415C17.487 22.5384 17.4224 22.5481 17.3615 22.57C17.3006 22.5919 17.2445 22.6256 17.1966 22.6691C17.1487 22.7127 17.1099 22.7652 17.0823 22.8238C16.1314 24.8423 13.8024 25.8724 11.6644 25.2196C10.5073 24.8664 9.55699 24.0837 8.9885 23.0157C8.42007 21.9477 8.30151 20.7222 8.65483 19.5651C9.00788 18.408 9.79069 17.4576 10.8586 16.8892Z" fill="#4679BE"/>
    <path d="M14.8833 19.5459C14.8256 19.4366 14.7467 19.3399 14.6514 19.2614C14.556 19.1828 14.446 19.124 14.3277 19.0883L14.1038 19.0199L14.2559 18.5215C14.2924 18.3969 14.2783 18.2631 14.2166 18.1489C14.155 18.0347 14.0509 17.9494 13.9268 17.9115C13.8027 17.8736 13.6686 17.8862 13.5537 17.9465C13.4388 18.0067 13.3523 18.1099 13.313 18.2335L13.1574 18.7433C12.5007 18.6299 11.8448 19.02 11.6453 19.6737C11.5933 19.8423 11.5753 20.0196 11.5923 20.1952C11.6093 20.3709 11.661 20.5414 11.7443 20.6969C11.8268 20.8529 11.9394 20.991 12.0756 21.1032C12.2118 21.2153 12.3689 21.2994 12.5378 21.3505L13.1583 21.5399C13.2032 21.5534 13.245 21.5758 13.2812 21.6056C13.3175 21.6355 13.3474 21.6722 13.3693 21.7137C13.3915 21.7551 13.4052 21.8004 13.4097 21.8471C13.4143 21.8939 13.4095 21.941 13.3956 21.9859C13.382 22.0308 13.3597 22.0725 13.3298 22.1087C13.3 22.145 13.2633 22.1749 13.2218 22.1968C13.1804 22.219 13.1351 22.2328 13.0884 22.2373C13.0417 22.2418 12.9945 22.237 12.9497 22.2231L12.6395 22.1284L11.9856 21.9288C12.0109 21.8048 11.9875 21.6757 11.9203 21.5684C11.8531 21.4611 11.7472 21.3838 11.6245 21.3525C11.5018 21.3211 11.3718 21.3382 11.2614 21.4001C11.1509 21.462 11.0686 21.564 11.0313 21.685C10.8799 22.181 11.1602 22.7076 11.6562 22.8591L11.8802 22.9274L11.728 23.4259C11.6918 23.5503 11.7061 23.684 11.7677 23.7981C11.8294 23.9121 11.9334 23.9972 12.0574 24.0351C12.1814 24.0729 12.3153 24.0604 12.4301 24.0003C12.5449 23.9401 12.6314 23.8372 12.6709 23.7137L12.8263 23.2045C12.9026 23.2178 12.9792 23.2252 13.0557 23.2252C13.2728 23.2252 13.488 23.172 13.6851 23.0671C13.841 22.9846 13.9791 22.872 14.0913 22.7358C14.2035 22.5996 14.2875 22.4425 14.3386 22.2736C14.5548 21.5653 14.1545 20.8131 13.4462 20.5969L12.8256 20.4075C12.7807 20.3939 12.7389 20.3715 12.7027 20.3417C12.6665 20.3119 12.6366 20.2751 12.6147 20.2336C12.5925 20.1923 12.5787 20.1469 12.5742 20.1002C12.5697 20.0535 12.5745 20.0063 12.5884 19.9615C12.6161 19.8709 12.6786 19.7951 12.7623 19.7506C12.8459 19.7061 12.9437 19.6966 13.0344 19.7242L13.3444 19.8188L13.3446 19.8189H13.3447L13.9984 20.0185C13.9728 20.1427 13.9959 20.2719 14.0631 20.3795C14.1303 20.487 14.2364 20.5645 14.3592 20.5959C14.4821 20.6273 14.6123 20.6101 14.7228 20.548C14.8334 20.4858 14.9157 20.3835 14.9527 20.2622C14.9891 20.1441 15.0016 20.02 14.9897 19.8971C14.9778 19.7741 14.9416 19.6548 14.8833 19.5459ZM29.6006 26.1228L26.4457 19.4186C26.3889 19.302 26.2886 19.2125 26.1664 19.1695C26.0441 19.1264 25.9098 19.1331 25.7926 19.1883C25.6753 19.2435 25.5845 19.3427 25.5397 19.4643C25.495 19.586 25.5 19.7203 25.5536 19.8383L28.7085 26.5425C28.7484 26.6272 28.8115 26.6988 28.8906 26.749C28.9696 26.7991 29.0613 26.8258 29.1549 26.8257C29.2379 26.8257 29.3196 26.8046 29.3923 26.7646C29.465 26.7246 29.5265 26.6668 29.5709 26.5967C29.6154 26.5266 29.6414 26.4464 29.6466 26.3635C29.6518 26.2807 29.6359 26.1979 29.6006 26.1228ZM27.3965 27.3015L24.2416 20.5973C24.186 20.479 24.0856 20.3877 23.9626 20.3434C23.8396 20.2991 23.704 20.3055 23.5857 20.3612C23.4675 20.4168 23.3761 20.5172 23.3318 20.6402C23.2876 20.7632 23.2939 20.8988 23.3496 21.017L26.5045 27.7212C26.5443 27.806 26.6075 27.8776 26.6865 27.9277C26.7656 27.9779 26.8573 28.0045 26.9509 28.0044C27.0339 28.0044 27.1156 27.9833 27.1883 27.9433C27.261 27.9033 27.3224 27.8455 27.3669 27.7754C27.4113 27.7053 27.4374 27.6251 27.4425 27.5423C27.4477 27.4594 27.4319 27.3766 27.3965 27.3015Z" fill="#4679BE"/>
  </g>
  <defs>
    <clipPath id="clip0_37_666">
      <rect width="33.6492" height="33.6492" fill="white" transform="translate(0.710938 0.268616)"/>
    </clipPath>
  </defs>
</svg>
