<svg width="40" height="40" viewBox="0 0 40 40" fill="none" xmlns="http://www.w3.org/2000/svg">
  <path
    d="M16.9101 28.67C16.7201 28.67 16.5301 28.6 16.3801 28.45C16.0901 28.16 16.0901 27.68 16.3801 27.39L22.9001 20.87C23.3801 20.39 23.3801 19.61 22.9001 19.13L16.3801 12.61C16.0901 12.32 16.0901 11.84 16.3801 11.55C16.6701 11.26 17.1501 11.26 17.4401 11.55L23.9601 18.07C24.4701 18.58 24.7601 19.27 24.7601 20C24.7601 20.73 24.4801 21.42 23.9601 21.93L17.4401 28.45C17.2901 28.59 17.1001 28.67 16.9101 28.67Z"
    fill="url(#paint0_linear_632_1021)" />
  <defs>
    <linearGradient id="paint0_linear_632_1021" x1="24.7601" y1="11.3325" x2="14.9262" y2="12.0647"
      gradientUnits="userSpaceOnUse">
      <stop stop-color="#FA751A" />
      <stop offset="1" stop-color="#DD5B07" />
    </linearGradient>
  </defs>
</svg>
