<svg width="48" height="49" viewBox="0 0 48 49" fill="none" xmlns="http://www.w3.org/2000/svg">
<path d="M37.4286 31.7913C40.4576 28.5231 42.3125 24.152 42.3125 19.3552C42.3124 9.25781 34.0976 1.04297 24.0002 1.04297C13.9027 1.04297 5.68799 9.25781 5.68799 19.3552C5.68799 24.5216 7.83936 29.1945 11.2924 32.527L6.77914 42.2209C6.72128 42.3451 6.69857 42.4829 6.71349 42.6191C6.72841 42.7554 6.78038 42.885 6.86377 42.9938C6.94716 43.1026 7.05877 43.1864 7.18647 43.2362C7.31417 43.286 7.45308 43.2999 7.58811 43.2763L13.1267 42.3085L15.9516 47.1698C16.0204 47.2884 16.1204 47.3858 16.2407 47.4515C16.3611 47.5172 16.4971 47.5486 16.634 47.5424C16.771 47.5362 16.9036 47.4926 17.0175 47.4162C17.1314 47.3399 17.2222 47.2339 17.28 47.1096L21.7409 37.5279C22.4814 37.6194 23.2353 37.6673 24.0002 37.6673C25.1003 37.6673 26.1781 37.5697 27.2254 37.3828L30.5922 45.1998C30.6464 45.3257 30.7341 45.4343 30.8457 45.5139C30.9574 45.5934 31.0887 45.6409 31.2254 45.6511C31.3621 45.6612 31.4989 45.6337 31.6211 45.5715C31.7433 45.5094 31.8461 45.4149 31.9183 45.2984L34.883 40.5211L40.391 41.6491C40.5252 41.6767 40.6645 41.667 40.7936 41.6209C40.9228 41.5748 41.0367 41.4942 41.1231 41.3877C41.2096 41.2814 41.2654 41.1534 41.2843 41.0177C41.3032 40.882 41.2845 40.7436 41.2303 40.6178L37.4286 31.7913ZM16.5266 45.1738L14.161 41.1029C14.0839 40.9704 13.968 40.8646 13.829 40.7999C13.69 40.7352 13.5345 40.7146 13.3835 40.7409L8.74546 41.5514L12.4637 33.5651C14.6768 35.3653 17.3166 36.6598 20.2059 37.271L16.5266 45.1738ZM7.18799 19.3552C7.18799 10.0849 14.7299 2.54297 24.0002 2.54297C33.2705 2.54297 40.8124 10.0849 40.8124 19.3552C40.8124 28.6254 33.2705 36.1673 24.0002 36.1673C14.7299 36.1673 7.18799 28.6254 7.18799 19.3552ZM34.6717 38.9469C34.5215 38.9161 34.3654 38.932 34.2245 38.9927C34.0837 39.0534 33.9648 39.1558 33.8841 39.2862L31.4015 43.2867L28.7156 37.0508C31.5712 36.2891 34.1547 34.8538 36.2836 32.9248L39.2841 39.8916L34.6717 38.9469ZM36.6049 24.5164C36.569 24.2162 36.5355 23.9491 36.5054 23.7093C36.3831 22.7348 36.3218 22.2459 36.3901 21.8591C36.4583 21.4724 36.6831 21.0337 37.1313 20.16C37.2415 19.9449 37.3643 19.7054 37.5006 19.4357C38.2116 18.0293 37.9172 16.3598 36.7682 15.2814C36.5478 15.0745 36.3504 14.8915 36.1732 14.7271C35.4533 14.0592 35.0919 13.7241 34.8956 13.3839C34.6993 13.0439 34.5896 12.5633 34.3713 11.606C34.3175 11.3703 34.2576 11.108 34.1886 10.8136C33.8293 9.27928 32.5306 8.18962 30.9572 8.10206C30.6554 8.08519 30.3866 8.07188 30.1452 8.05988C29.1644 8.01103 28.6721 7.98656 28.303 7.85222C27.934 7.71778 27.5411 7.42022 26.7584 6.82716C26.5425 6.66326 26.3262 6.50004 26.1093 6.3375C24.8477 5.39325 23.1526 5.39325 21.8909 6.3375C21.6488 6.51862 21.4343 6.68119 21.2417 6.82716C20.459 7.42013 20.0661 7.71778 19.6971 7.85222C19.328 7.98656 18.8357 8.01094 17.855 8.05988C17.6136 8.07188 17.3448 8.08528 17.043 8.10206C15.4696 8.18962 14.171 9.27928 13.8115 10.8136C13.7426 11.1079 13.6827 11.3703 13.629 11.6059C13.4106 12.5632 13.3009 13.0438 13.1046 13.3839C12.9082 13.7241 12.5468 14.0592 11.827 14.727C11.6281 14.9112 11.4298 15.096 11.232 15.2814C10.083 16.3598 9.78861 18.0293 10.4995 19.4357C10.6359 19.7054 10.7586 19.9449 10.8689 20.16C11.317 21.0337 11.5419 21.4724 11.6101 21.8591C11.6783 22.2459 11.6169 22.7349 11.4948 23.7093C11.4647 23.9492 11.4312 24.2162 11.3953 24.5164C11.2083 26.081 12.0559 27.5491 13.5045 28.1695C13.7824 28.2886 14.0304 28.3931 14.2532 28.487C15.1581 28.8682 15.6123 29.0597 15.9131 29.3122C16.214 29.5646 16.4813 29.9786 17.014 30.8036C17.1451 31.0067 17.2911 31.2327 17.4566 31.4857C18.1229 32.5045 19.225 33.0823 20.3874 33.0822C20.7297 33.0822 21.0774 33.0321 21.4206 32.9284C21.7099 32.8409 21.967 32.7616 22.1979 32.6903C23.1363 32.4007 23.6073 32.2554 24 32.2554C24.3927 32.2554 24.8637 32.4007 25.8021 32.6903C26.0331 32.7616 26.2903 32.8409 26.5795 32.9284C28.0879 33.3843 29.681 32.8045 30.5435 31.4857C30.7089 31.2326 30.8549 31.0066 30.9861 30.8035C31.5187 29.9785 31.7861 29.5644 32.087 29.3121C32.3878 29.0597 32.842 28.8682 33.7469 28.4869C33.9696 28.393 34.2177 28.2885 34.4956 28.1694C35.9443 27.5491 36.7919 26.081 36.6049 24.5164ZM35.7966 19.4754C34.7649 21.4873 34.7358 21.6526 35.0171 23.8958C35.0468 24.133 35.08 24.3973 35.1155 24.6943C35.2245 25.6062 34.7494 26.4291 33.9051 26.7907C33.6302 26.9084 33.3848 27.0117 33.1644 27.1046C31.081 27.9826 30.9525 28.0905 29.7261 29.9898C29.5808 30.2152 29.4349 30.4401 29.2882 30.6646C28.7856 31.4332 27.8928 31.7582 27.0136 31.4924C26.7274 31.4059 26.4729 31.3274 26.2445 31.2569C24.0841 30.5903 23.9163 30.5902 21.7558 31.2569C21.5273 31.3274 21.2729 31.4059 20.9867 31.4924C20.1074 31.7584 19.2147 31.4332 18.712 30.6646C18.5483 30.4144 18.4039 30.1906 18.2742 29.9898C17.0478 28.0904 16.9192 27.9826 14.8358 27.1046C14.6154 27.0118 14.3701 26.9084 14.0951 26.7907C13.2509 26.4291 12.7758 25.6061 12.8848 24.6943C12.9202 24.3973 12.9534 24.1331 12.9832 23.8958C13.2646 21.6525 13.2354 21.4873 12.2038 19.4754C12.0947 19.2626 11.9733 19.0257 11.8384 18.7588C11.4241 17.9392 11.589 17.0035 12.2586 16.375C12.4768 16.1703 12.672 15.9893 12.8473 15.8266C14.5047 14.289 14.5886 14.1437 15.0915 11.9393C15.1446 11.7063 15.2039 11.4467 15.2721 11.1555C15.4815 10.2613 16.2094 9.65053 17.1263 9.59953C17.4249 9.58294 17.6908 9.56972 17.9296 9.55781C20.1877 9.44541 20.3454 9.38794 22.1476 8.02266C22.3382 7.87828 22.5504 7.7175 22.7899 7.53825C23.1575 7.26309 23.5789 7.12556 24.0002 7.12556C24.4215 7.12556 24.8428 7.26319 25.2105 7.53825C25.4499 7.71741 25.6621 7.87828 25.8527 8.02266C27.6548 9.38794 27.8125 9.44541 30.0707 9.55781C30.3095 9.56972 30.5754 9.58303 30.8739 9.59953C31.7909 9.65053 32.5188 10.2613 32.7282 11.1555C32.7965 11.4467 32.8556 11.7064 32.9089 11.9394C33.4117 14.1437 33.4956 14.289 35.1531 15.8266C35.3285 15.9893 35.5236 16.1704 35.7417 16.375C36.4114 17.0035 36.5763 17.9392 36.162 18.7588C36.041 18.9981 35.9191 19.237 35.7966 19.4754ZM30.4345 16.8545L26.4237 16.6589L24.9984 12.9049C24.8399 12.4872 24.448 12.2173 24.0002 12.2173C23.5522 12.2173 23.1604 12.4872 23.0019 12.9049L21.5766 16.6589L17.5659 16.8545C17.1189 16.8761 16.7406 17.1652 16.6023 17.5909C16.4639 18.0166 16.5999 18.4728 16.9488 18.7533L20.0786 21.2689L19.0251 25.1438C18.9078 25.5756 19.0659 26.0246 19.428 26.2877C19.61 26.4209 19.8296 26.493 20.0552 26.4934C20.2578 26.4934 20.4608 26.4348 20.6404 26.3172L24.0002 24.1181L27.3599 26.3174C27.7344 26.5626 28.2103 26.5507 28.5725 26.2879C28.9345 26.0247 29.0926 25.5757 28.9751 25.1439L27.9217 21.2691L31.0517 18.7535C31.4005 18.473 31.5365 18.0168 31.3981 17.5911C31.2597 17.1653 30.8814 16.8762 30.4345 16.8545ZM23.5961 13.4374C23.5961 13.4373 23.5961 13.4373 23.5961 13.4374V13.4374ZM26.7615 20.2771C26.5995 20.4072 26.479 20.5817 26.4148 20.7793C26.3506 20.9769 26.3454 21.189 26.4 21.3894L27.229 24.4389L24.585 22.7082C24.4112 22.5944 24.2079 22.5337 24.0001 22.5337C23.7924 22.5337 23.5891 22.5943 23.4153 22.7081L20.7711 24.4389L21.6004 21.3891C21.6548 21.1886 21.6495 20.9767 21.5853 20.7792C21.5211 20.5817 21.4007 20.4072 21.2388 20.2771L18.7756 18.2973L21.9318 18.1433C22.1394 18.1334 22.3395 18.063 22.5077 17.9409C22.6759 17.8187 22.8047 17.6502 22.8785 17.4559L24.0002 14.5015L25.1219 17.4561C25.1956 17.6503 25.3244 17.8188 25.4925 17.9409C25.6606 18.063 25.8607 18.1334 26.0682 18.1434L29.2247 18.2974L26.7615 20.2771Z" fill="white"/>
</svg>
