<svg width="49" height="49" viewBox="0 0 49 49" fill="none" xmlns="http://www.w3.org/2000/svg">
<g clip-path="url(#clip0_277_548)">
<path d="M18.8268 3.25746C18.8268 3.25746 18.8268 10.9712 28.3143 10.9712C37.8018 10.9712 35.2143 16.1147 39.5268 16.1147C39.5268 16.1147 42.1143 16.1147 42.1143 19.543C42.1143 22.9712 38.6643 24.6857 38.6643 24.6857C36.9393 32.4002 32.6268 38.293 24.8643 38.293C17.1018 38.293 12.7893 32.4002 11.0643 24.6857C11.0643 24.6857 7.61426 22.9712 7.61426 19.543C7.61426 16.1147 10.2018 16.1147 10.2018 16.1147C12.7893 16.1147 16.2393 11.8285 16.2393 9.25746" stroke="#4679BE" stroke-width="1.5" stroke-linecap="round" stroke-linejoin="round"/>
<path d="M35.2143 1.54297C35.2143 1.54297 41.2518 5.82847 41.2518 11.8285C41.2854 13.3822 41.0668 14.931 40.6045 16.4147M20.5518 29.8285C21.7351 30.9018 23.2669 31.5108 24.8643 31.543C26.4616 31.5108 27.9934 30.9018 29.1768 29.8285M29.1768 20.4002C29.9997 20.7229 30.8813 20.8688 31.7643 20.8285C32.2656 20.8291 32.7603 20.7133 33.2093 20.4903C33.6583 20.2672 34.0494 19.9429 34.3518 19.543L35.2143 19.8887M20.5525 20.4002C19.7296 20.7229 18.848 20.8688 17.965 20.8285C17.4636 20.8291 16.969 20.7133 16.52 20.4903C16.0709 20.2672 15.6799 19.9429 15.3775 19.543L14.515 19.8887M33.1143 35.2705V39.043C33.1673 40.4884 33.5295 41.9057 34.1764 43.1994C34.8232 44.4931 35.7398 45.6332 36.8643 46.543M16.6143 35.2705V39.043C16.5612 40.4884 16.199 41.9057 15.5522 43.1994C14.9053 44.4931 13.9888 45.6332 12.8643 46.543M2.36426 39.418C3.53376 39.228 4.63074 38.7273 5.54051 37.9682C6.34901 37.1785 6.88451 35.9417 7.23926 33.793C7.58726 35.902 8.11001 37.1327 8.89301 37.924C9.80755 38.7109 10.9228 39.2281 12.1143 39.418C10.5273 39.8185 9.39251 40.219 8.58101 41.2697C7.83214 42.3989 7.37145 43.6945 7.23926 45.043C6.89126 42.934 6.36851 41.7032 5.58926 40.912C4.67367 40.1244 3.55704 39.6072 2.36426 39.418ZM39.8643 34.543C40.7861 34.3877 41.6446 33.973 42.3393 33.3475C42.9393 32.7152 43.3435 31.7305 43.6143 30.043C43.882 31.7305 44.284 32.7145 44.8893 33.3475C45.5839 33.973 46.4424 34.3877 47.3643 34.543C46.4424 34.6982 45.5839 35.1129 44.8893 35.7385C44.2893 36.3707 43.885 37.3555 43.6143 39.043C43.5211 37.9157 43.1331 36.8327 42.4893 35.9027C41.7875 35.1733 40.8649 34.6954 39.8643 34.543Z" stroke="#4679BE" stroke-width="1.5" stroke-linecap="round" stroke-linejoin="round"/>
</g>
<defs>
<clipPath id="clip0_277_548">
<rect width="48" height="48" fill="#4679BE" transform="translate(0.864258 0.0429688)"/>
</clipPath>
</defs>
</svg>
